<svg fill="#efefef" width="28" height="28" viewBox="0 0 24 24" xmlns="http://www.w3.org/2000/svg" stroke="#efefef"><g id="SVGRepo_bgCarrier" stroke-width="0"></g><g id="SVGRepo_tracerCarrier" stroke-linecap="round" stroke-linejoin="round"></g><g id="SVGRepo_iconCarrier"> <path fill-rule="evenodd" d="M13.9439774,2.73116957 L14.0855382,2.86385819 L21.1361418,9.91446183 C22.2879527,11.0662728 22.2879527,12.9337272 21.1361418,14.0855382 L14.0855382,21.1361418 C12.9337272,22.2879527 11.0662728,22.2879527 9.91446183,21.1361418 L2.86385819,14.0855382 C1.71204727,12.9337272 1.71204727,11.0662728 2.86385819,9.91446183 L9.91446183,2.86385819 C11.0202003,1.75811971 12.7854759,1.71389017 13.9439774,2.73116957 Z M11.3286754,4.27807176 L4.27807176,11.3286754 C3.90730941,11.6994377 3.90730941,12.3005623 4.27807176,12.6713246 L11.3286754,19.7219282 C11.6994377,20.0926906 12.3005623,20.0926906 12.6713246,19.7219282 L19.7219282,12.6713246 C20.0926906,12.3005623 20.0926906,11.6994377 19.7219282,11.3286754 L12.6864633,4.29321048 L12.6243321,4.23401232 C12.2514817,3.9066126 11.6827715,3.92397563 11.3286754,4.27807176 Z M13.6128994,9.20970461 L13.7071068,9.29289322 L15.7071068,11.2928932 C16.0675907,11.6533772 16.0953203,12.2206082 15.7902954,12.6128994 L15.7071068,12.7071068 L13.7071068,14.7071068 C13.3165825,15.0976311 12.6834175,15.0976311 12.2928932,14.7071068 C11.9324093,14.3466228 11.9046797,13.7793918 12.2097046,13.3871006 L12.2928932,13.2928932 L12.584,13 L10,13 L10,14 C10,14.5522847 9.55228475,15 9,15 C8.48716416,15 8.06449284,14.6139598 8.00672773,14.1166211 L8,14 L8,12 C8,11.4871642 8.38604019,11.0644928 8.88337887,11.0067277 L9,11 L12.585,11 L12.2928932,10.7071068 C11.9324093,10.3466228 11.9046797,9.77939176 12.2097046,9.38710056 L12.2928932,9.29289322 C12.6533772,8.93240926 13.2206082,8.90467972 13.6128994,9.20970461 Z"></path> </g></svg>