<svg width="20" height="22" viewBox="0 0 20 22" fill="none" xmlns="http://www.w3.org/2000/svg">
<path d="M5.5 3.00409C5.63161 3.00485 5.76207 2.97963 5.88391 2.92986C6.00574 2.8801 6.11656 2.80677 6.21 2.71409L7.21 1.71409C7.3983 1.52579 7.50409 1.27039 7.50409 1.00409C7.50409 0.73779 7.3983 0.482395 7.21 0.294092C7.0217 0.105788 6.7663 1.9841e-09 6.5 0C6.2337 -1.9841e-09 5.9783 0.105788 5.79 0.294092L4.79 1.29409C4.69627 1.38705 4.62188 1.49766 4.57111 1.61952C4.52034 1.74137 4.4942 1.87208 4.4942 2.00409C4.4942 2.1361 4.52034 2.26681 4.57111 2.38867C4.62188 2.51053 4.69627 2.62113 4.79 2.71409C4.88344 2.80677 4.99426 2.8801 5.11609 2.92986C5.23793 2.97963 5.36839 3.00485 5.5 3.00409ZM9.5 3.00409C9.63161 3.00485 9.76207 2.97963 9.88391 2.92986C10.0057 2.8801 10.1166 2.80677 10.21 2.71409L11.21 1.71409C11.3983 1.52579 11.5041 1.27039 11.5041 1.00409C11.5041 0.73779 11.3983 0.482395 11.21 0.294092C11.0217 0.105788 10.7663 0 10.5 0C10.2337 0 9.9783 0.105788 9.79 0.294092L8.79 1.29409C8.69627 1.38705 8.62188 1.49766 8.57111 1.61952C8.52034 1.74137 8.4942 1.87208 8.4942 2.00409C8.4942 2.1361 8.52034 2.26681 8.57111 2.38867C8.62188 2.51053 8.69627 2.62113 8.79 2.71409C8.88344 2.80677 8.99426 2.8801 9.11609 2.92986C9.23793 2.97963 9.36839 3.00485 9.5 3.00409ZM13.5 3.00409C13.6316 3.00485 13.7621 2.97963 13.8839 2.92986C14.0057 2.8801 14.1166 2.80677 14.21 2.71409L15.21 1.71409C15.3032 1.62085 15.3772 1.51016 15.4277 1.38834C15.4781 1.26652 15.5041 1.13595 15.5041 1.00409C15.5041 0.872232 15.4781 0.741664 15.4277 0.619842C15.3772 0.49802 15.3032 0.38733 15.21 0.294092C15.1168 0.200853 15.0061 0.126892 14.8842 0.0764319C14.7624 0.0259715 14.6319 0 14.5 0C14.3681 0 14.2376 0.0259715 14.1158 0.0764319C13.9939 0.126892 13.8832 0.200853 13.79 0.294092L12.79 1.29409C12.6963 1.38705 12.6219 1.49766 12.5711 1.61952C12.5203 1.74137 12.4942 1.87208 12.4942 2.00409C12.4942 2.1361 12.5203 2.26681 12.5711 2.38867C12.6219 2.51053 12.6963 2.62113 12.79 2.71409C12.8834 2.80677 12.9943 2.8801 13.1161 2.92986C13.2379 2.97963 13.3684 3.00485 13.5 3.00409ZM15.92 14.6241C15.8981 14.5604 15.8678 14.4998 15.83 14.4441L15.71 14.2941L15.56 14.1741C15.5043 14.1362 15.4437 14.106 15.38 14.0841C15.3205 14.0536 15.2562 14.0334 15.19 14.0241C15.0293 13.9919 14.8632 13.9997 14.7063 14.0468C14.5494 14.0939 14.4064 14.1788 14.29 14.2941C14.247 14.3416 14.2069 14.3917 14.17 14.4441C14.1322 14.4998 14.1019 14.5604 14.08 14.6241C14.0512 14.6808 14.0309 14.7414 14.02 14.8041C14.0151 14.8707 14.0151 14.9375 14.02 15.0041C14.0211 15.2664 14.1253 15.5178 14.31 15.7041C14.4025 15.8008 14.5152 15.8759 14.64 15.9241C14.754 15.9728 14.8761 16 15 16.0041C15.2652 16.0041 15.5196 15.8987 15.7071 15.7112C15.8946 15.5237 16 15.2693 16 15.0041C16.0049 14.9375 16.0049 14.8707 16 14.8041C15.9828 14.7403 15.9558 14.6796 15.92 14.6241ZM17.76 10.1141L16.4 6.05409C16.1926 5.46732 15.8077 4.9596 15.2989 4.60125C14.7901 4.24291 14.1824 4.05169 13.56 4.05409H6.44C5.81764 4.05169 5.20995 4.24291 4.7011 4.60125C4.19225 4.9596 3.80745 5.46732 3.6 6.05409L2.24 10.1141C1.60033 10.2816 1.03392 10.6558 0.628829 11.1784C0.223743 11.701 0.00267662 12.3429 0 13.0041V17.0041C0.00173951 17.623 0.194879 18.2263 0.552938 18.7312C0.910998 19.236 1.41645 19.6178 2 19.8241V21.0041C2 21.2693 2.10536 21.5237 2.29289 21.7112C2.48043 21.8987 2.73478 22.0041 3 22.0041C3.26522 22.0041 3.51957 21.8987 3.70711 21.7112C3.89464 21.5237 4 21.2693 4 21.0041V20.0041H16V21.0041C16 21.2693 16.1054 21.5237 16.2929 21.7112C16.4804 21.8987 16.7348 22.0041 17 22.0041C17.2652 22.0041 17.5196 21.8987 17.7071 21.7112C17.8946 21.5237 18 21.2693 18 21.0041V19.8241C18.5835 19.6178 19.089 19.236 19.4471 18.7312C19.8051 18.2263 19.9983 17.623 20 17.0041V13.0041C19.9973 12.3429 19.7763 11.701 19.3712 11.1784C18.9661 10.6558 18.3997 10.2816 17.76 10.1141ZM5.49 6.68409C5.55709 6.48547 5.6849 6.31296 5.85537 6.19093C6.02584 6.06891 6.23036 6.00355 6.44 6.00409H13.56C13.7781 5.99271 13.9939 6.05302 14.1744 6.17581C14.355 6.29859 14.4904 6.47711 14.56 6.68409L15.61 10.0041H4.39L5.49 6.68409ZM18 17.0041C18 17.2693 17.8946 17.5237 17.7071 17.7112C17.5196 17.8987 17.2652 18.0041 17 18.0041H3C2.73478 18.0041 2.48043 17.8987 2.29289 17.7112C2.10536 17.5237 2 17.2693 2 17.0041V13.0041C2 12.7389 2.10536 12.4845 2.29289 12.297C2.48043 12.1094 2.73478 12.0041 3 12.0041H17C17.2652 12.0041 17.5196 12.1094 17.7071 12.297C17.8946 12.4845 18 12.7389 18 13.0041V17.0041ZM11 14.0041H9C8.73478 14.0041 8.48043 14.1094 8.29289 14.297C8.10536 14.4845 8 14.7389 8 15.0041C8 15.2693 8.10536 15.5237 8.29289 15.7112C8.48043 15.8987 8.73478 16.0041 9 16.0041H11C11.2652 16.0041 11.5196 15.8987 11.7071 15.7112C11.8946 15.5237 12 15.2693 12 15.0041C12 14.7389 11.8946 14.4845 11.7071 14.297C11.5196 14.1094 11.2652 14.0041 11 14.0041ZM5.92 14.6241C5.89811 14.5604 5.86785 14.4998 5.83 14.4441L5.71 14.2941C5.56938 14.1553 5.3908 14.0613 5.19681 14.024C5.00282 13.9866 4.80211 14.0075 4.62 14.0841C4.49725 14.1317 4.3851 14.2031 4.29 14.2941C4.24699 14.3416 4.20692 14.3917 4.17 14.4441C4.13215 14.4998 4.10189 14.5604 4.08 14.6241C4.0442 14.6796 4.01722 14.7403 4 14.8041C3.99509 14.8707 3.99509 14.9375 4 15.0041C4.00083 15.2019 4.06028 15.3949 4.17085 15.5589C4.28141 15.7229 4.43812 15.8504 4.62115 15.9254C4.80418 16.0003 5.00532 16.0193 5.19913 15.9799C5.39295 15.9405 5.57073 15.8445 5.71 15.7041C5.89474 15.5178 5.9989 15.2664 6 15.0041C6.00491 14.9375 6.00491 14.8707 6 14.8041C5.98278 14.7403 5.9558 14.6796 5.92 14.6241Z" fill="#857D7D"/>
</svg>
