<svg width="24" height="24" viewBox="0 0 24 24" fill="none" xmlns="http://www.w3.org/2000/svg">
<path d="M18 4.47991C16.4087 2.88861 14.2504 1.99463 12 1.99463C9.74955 1.99463 7.59129 2.88861 5.99999 4.47991C4.40869 6.07121 3.51471 8.22947 3.51471 10.4799C3.51471 12.7303 4.40869 14.8886 5.99999 16.4799L11.27 21.7599C11.363 21.8536 11.4736 21.928 11.5954 21.9788C11.7173 22.0296 11.848 22.0557 11.98 22.0557C12.112 22.0557 12.2427 22.0296 12.3646 21.9788C12.4864 21.928 12.597 21.8536 12.69 21.7599L18 16.4299C19.5846 14.8452 20.4749 12.696 20.4749 10.4549C20.4749 8.21386 19.5846 6.06459 18 4.47991ZM16.57 14.9999L12 19.5899L7.42999 14.9999C6.52713 14.0962 5.91247 12.9452 5.66369 11.6922C5.4149 10.4392 5.54318 9.14066 6.03229 7.96059C6.52141 6.78052 7.34941 5.77196 8.41162 5.06239C9.47383 4.35281 10.7226 3.97409 12 3.97409C13.2774 3.97409 14.5261 4.35281 15.5884 5.06239C16.6506 5.77196 17.4786 6.78052 17.9677 7.96059C18.4568 9.14066 18.5851 10.4392 18.3363 11.6922C18.0875 12.9452 17.4728 14.0962 16.57 14.9999ZM8.99999 7.40991C8.19271 8.21968 7.73939 9.31648 7.73939 10.4599C7.73939 11.6033 8.19271 12.7001 8.99999 13.5099C9.59975 14.1107 10.3636 14.521 11.1956 14.6893C12.0277 14.8576 12.8909 14.7765 13.6771 14.4561C14.4632 14.1356 15.1372 13.5902 15.6145 12.8882C16.0918 12.1861 16.3511 11.3588 16.36 10.5099C16.3645 9.94311 16.2553 9.38117 16.0389 8.8573C15.8225 8.33343 15.5032 7.85827 15.1 7.45991C14.7037 7.05449 14.2311 6.73145 13.7094 6.50938C13.1878 6.2873 12.6273 6.17059 12.0604 6.16594C11.4935 6.16129 10.9312 6.26881 10.406 6.4823C9.88073 6.69579 9.40291 7.01104 8.99999 7.40991ZM13.69 12.0899C13.311 12.4747 12.8102 12.7158 12.2731 12.7722C11.736 12.8285 11.1961 12.6966 10.7455 12.3988C10.2949 12.1011 9.96179 11.6562 9.803 11.14C9.64421 10.6238 9.66964 10.0685 9.87495 9.56907C10.0803 9.06958 10.4527 8.65693 10.9286 8.40165C11.4045 8.14637 11.9542 8.06432 12.4839 8.16953C13.0136 8.27474 13.4903 8.56067 13.8325 8.97844C14.1747 9.39621 14.3612 9.91988 14.36 10.4599C14.3454 11.0772 14.0865 11.6634 13.64 12.0899H13.69Z" fill="#1C48A8"/>
</svg>
