<!DOCTYPE svg PUBLIC "-//W3C//DTD SVG 1.1//EN" "http://www.w3.org/Graphics/SVG/1.1/DTD/svg11.dtd">

<!-- Uploaded to: SVG Repo, www.svgrepo.com, Transformed by: SVG Repo Mixer Tools -->
<svg width="26" height="26" viewBox="0 0 24.00 24.00" version="1.1" xml:space="preserve" xmlns="http://www.w3.org/2000/svg" xmlns:xlink="http://www.w3.org/1999/xlink" fill="#857D7D">

<g id="SVGRepo_bgCarrier" stroke-width="0"/>

<g id="SVGRepo_tracerCarrier" stroke-linecap="round" stroke-linejoin="round" stroke="#857D7D" stroke-width="0.72"> <style type="text/css"> .st0{display:none;} .st1{display:inline;} .st2{opacity:0.2;fill:none;stroke:#857D7D;stroke-width:0.00024000000000000003;stroke-miterlimit:10;} </style> <g class="st0" id="grid_system"/> <g id="_icons"> <path d="M14,10h-1V9c0-0.6-0.4-1-1-1s-1,0.4-1,1v1h-1c-0.6,0-1,0.4-1,1s0.4,1,1,1h1v1c0,0.6,0.4,1,1,1s1-0.4,1-1v-1h1 c0.6,0,1-0.4,1-1S14.6,10,14,10z"/> <path d="M19,3h-1H6H5C4.4,3,4,3.4,4,4s0.4,1,1,1v14.1c0,0.7,0.4,1.4,1.1,1.8c0.3,0.2,0.6,0.2,0.9,0.2c0.4,0,0.8-0.1,1.1-0.3 l3.9-2.6l3.9,2.6c0.6,0.4,1.4,0.5,2.1,0.1c0.7-0.3,1.1-1,1.1-1.8V5c0.6,0,1-0.4,1-1S19.6,3,19,3z M17,19.1C17,19.1,17,19.1,17,19.1 l-3.9-2.6c-0.3-0.2-0.7-0.3-1.1-0.3s-0.8,0.1-1.1,0.3L7,19.1V5h10L17,19.1L17,19.1z"/> </g> </g>

<g id="SVGRepo_iconCarrier"> <style type="text/css"> .st0{display:none;} .st1{display:inline;} .st2{opacity:0.2;fill:none;stroke:#857D7D;stroke-width:0.00024000000000000003;stroke-miterlimit:10;} </style> <g class="st0" id="grid_system"/> <g id="_icons"> <path d="M14,10h-1V9c0-0.6-0.4-1-1-1s-1,0.4-1,1v1h-1c-0.6,0-1,0.4-1,1s0.4,1,1,1h1v1c0,0.6,0.4,1,1,1s1-0.4,1-1v-1h1 c0.6,0,1-0.4,1-1S14.6,10,14,10z"/> <path d="M19,3h-1H6H5C4.4,3,4,3.4,4,4s0.4,1,1,1v14.1c0,0.7,0.4,1.4,1.1,1.8c0.3,0.2,0.6,0.2,0.9,0.2c0.4,0,0.8-0.1,1.1-0.3 l3.9-2.6l3.9,2.6c0.6,0.4,1.4,0.5,2.1,0.1c0.7-0.3,1.1-1,1.1-1.8V5c0.6,0,1-0.4,1-1S19.6,3,19,3z M17,19.1C17,19.1,17,19.1,17,19.1 l-3.9-2.6c-0.3-0.2-0.7-0.3-1.1-0.3s-0.8,0.1-1.1,0.3L7,19.1V5h10L17,19.1L17,19.1z"/> </g> </g>

</svg>